<svg width="496" height="149" viewBox="0 0 496 149" fill="none" xmlns="http://www.w3.org/2000/svg">
<g clip-path="url(#clip0_229_197)">
<g clip-path="url(#clip1_229_197)">
<path fill-rule="evenodd" clip-rule="evenodd" d="M66.098 147.032C27.3184 147.019 1.40799 113.915 1.40799 73.7728C1.40799 33.6271 27.3845 0.141056 66.0425 0.246157H431.365C470.024 0.141056 496 33.6271 496 73.7728C496 113.915 470.084 147.019 431.302 147.032H66.098Z" fill="#CC2131"/>
<path fill-rule="evenodd" clip-rule="evenodd" d="M66.2196 18.3077C35.519 18.3714 16.6698 43.0958 16.6698 73.6741C16.6698 104.249 35.3974 129.168 66.2196 129.031H431.18C462 129.168 480.738 104.249 480.738 73.6741C480.738 43.0958 461.886 18.3746 431.18 18.3077H66.2196Z" fill="white"/>
<path fill-rule="evenodd" clip-rule="evenodd" d="M50.4767 38.965H68.3372L93.0685 87.1462L93.0553 38.965H110.781V108.071H93.0791L68.2235 59.8866V108.071H50.4688L50.4767 38.965ZM207.187 46.0801H224.45V55.3768H233.79V62.2021H224.45L224.46 108.071H207.187L207.195 62.2021H197.82V55.3832H207.2L207.187 46.0801ZM120.658 62.1192H137.907V108.071H120.658V62.1192ZM120.621 38.9523H137.907V53.0805H120.621V38.9523ZM429.845 84.7257C429.845 84.7257 429.835 91.6624 429.835 94.4555C429.835 101.778 426.247 104.806 422.782 104.806C419.332 104.806 415.718 101.778 415.718 94.4555C415.718 91.6624 415.728 84.5537 415.728 84.5537C415.728 84.5537 415.744 77.7603 415.744 74.9671C415.744 67.6737 419.342 64.6735 422.782 64.6735C426.221 64.6735 429.835 67.6737 429.835 74.9671C429.835 77.7603 429.835 82.9039 429.845 84.7575V84.7257ZM422.916 58.9789C409 58.9789 397.72 70.5337 397.72 84.7893C397.72 99.0354 409.003 110.587 422.916 110.587C436.848 110.587 448.129 99.0354 448.129 84.7893C448.129 70.5337 436.848 58.9789 422.916 58.9789ZM375.074 38.965H392.097V108.058H375.048L375.037 105.415C368.444 110.402 360.984 110.39 355.178 107.138C353.624 106.262 343.38 100.338 343.38 84.3594C343.38 72.2186 352.886 58.9789 365.309 60.2911C369.404 60.7306 372.309 62.5269 375.072 64.3901L375.074 38.965ZM375.199 84.8626V76.6519C375.199 69.5432 371.13 67.7342 368.444 67.7342C365.692 67.7342 361.674 69.5432 361.674 76.6519C361.674 78.996 361.684 84.8435 361.684 84.8435C361.684 84.8435 361.674 90.5604 361.674 93.0096C361.674 100.112 365.692 101.966 368.444 101.966C371.13 101.966 375.199 100.112 375.199 93.0096V84.8626ZM178.284 59.9949C184.729 59.7815 197.82 64.8678 197.725 83.0663C197.707 86.2894 197.72 108.061 197.72 108.061H180.584V77.8845C180.584 73.8747 177.404 69.419 172.708 69.419C168.005 69.419 164.516 73.8747 164.516 77.8845L164.534 108.061H147.406L147.393 62.1129L164.532 62.0969C164.532 62.0969 164.513 65.7978 164.532 66.9252C168.248 62.6486 173.147 60.18 178.284 59.9949ZM318.469 59.9949C324.903 59.7815 337.992 64.8678 337.91 83.0663C337.883 86.2894 337.894 108.061 337.894 108.061H320.758V77.8845C320.758 73.8747 317.583 69.419 312.883 69.419C308.182 69.419 304.682 73.8747 304.682 77.8845L304.708 108.061H287.585L287.596 62.1129L304.708 62.0969C304.708 62.0969 304.682 65.7978 304.708 66.9252C308.426 62.6456 313.328 60.1767 318.469 59.9949ZM249.861 78.1329C249.829 74.1136 249.898 71.4255 250.992 69.1133C252.351 66.2851 254.828 64.9379 257.07 64.9251H257.059C259.317 64.9379 261.778 66.2851 263.126 69.1133C264.221 71.4223 264.284 74.1136 264.258 78.1329H249.861ZM264.184 91.9936C264.184 91.9936 264.2 92.1974 264.2 94.7867C264.2 103.192 259.61 105.064 257.07 105.064C254.519 105.064 249.847 103.192 249.847 94.7867C249.847 92.2611 249.874 85.2958 249.874 85.2958C249.874 85.2958 282.356 85.3085 282.356 85.2958C282.356 71.0401 270.941 59.2337 256.911 59.2337C242.889 59.2337 231.514 70.7885 231.514 85.0282C231.514 99.287 242.889 110.842 256.911 110.842C268.549 110.842 278.375 102.835 281.386 91.9745L264.184 91.9936ZM449.329 55.4086H447.341V39.6721H452.324C455.401 39.6721 456.935 41.0447 456.935 44.1436C456.935 46.9559 455.468 48.1821 453.543 48.4783L457.255 55.4086H455.045L451.595 48.5834H449.329V55.4086ZM451.692 46.561C453.371 46.561 454.857 46.4209 454.857 44.0003C454.857 42.0544 453.39 41.6881 452.023 41.6881H449.326V46.561H451.692Z" fill="#CC2131"/>
<path fill-rule="evenodd" clip-rule="evenodd" d="M440.214 47.4973C440.214 39.6689 445.49 33.8947 451.719 33.8947C457.894 33.8947 463.155 39.672 463.155 47.4973C463.155 55.4055 457.894 61.1765 451.719 61.1765C445.49 61.1765 440.214 55.4086 440.214 47.4973ZM451.719 58.9025C456.845 58.9025 460.879 54.0678 460.879 47.4973C460.879 41.0447 456.848 36.1655 451.719 36.1655C446.54 36.1655 442.498 41.0447 442.498 47.4973C442.498 54.071 446.54 58.9025 451.719 58.9025Z" fill="#CC2131"/>
</g>
</g>
<defs>
<clipPath id="clip0_229_197">
<rect width="496" height="149" fill="white"/>
</clipPath>
<clipPath id="clip1_229_197">
<rect width="496" height="149" fill="white"/>
</clipPath>
</defs>
</svg>
